<svg width="20" height="20" viewBox="0 0 20 20" fill="none" xmlns="http://www.w3.org/2000/svg">
<path d="M18.225 9.58334C17.6916 8.65834 14.7583 4.01667 9.77497 4.16667C5.16664 4.28334 2.49998 8.33334 1.77498 9.58334C1.70184 9.71002 1.66333 9.85372 1.66333 10C1.66333 10.1463 1.70184 10.29 1.77498 10.4167C2.29998 11.325 5.10831 15.8333 10.0166 15.8333H10.225C14.8333 15.7167 17.5083 11.6667 18.225 10.4167C18.2981 10.29 18.3366 10.1463 18.3366 10C18.3366 9.85372 18.2981 9.71002 18.225 9.58334ZM10.1833 14.1667C6.59164 14.25 4.24997 11.175 3.51664 10C4.34998 8.65834 6.52498 5.91667 9.85831 5.83334C13.4333 5.74167 15.7833 8.82501 16.525 10C15.6666 11.3417 13.5166 14.0833 10.1833 14.1667Z" fill="#4C4C4C"/>
<path d="M10 7.08334C9.42318 7.08334 8.85927 7.2544 8.37963 7.57489C7.89999 7.89538 7.52615 8.3509 7.30539 8.88385C7.08464 9.4168 7.02688 10.0032 7.13942 10.569C7.25196 11.1348 7.52974 11.6545 7.93765 12.0624C8.34555 12.4703 8.86525 12.7481 9.43103 12.8606C9.99681 12.9732 10.5833 12.9154 11.1162 12.6947C11.6492 12.4739 12.1047 12.1001 12.4252 11.6204C12.7456 11.1408 12.9167 10.5769 12.9167 10C12.9167 9.22646 12.6094 8.4846 12.0624 7.93762C11.5155 7.39063 10.7736 7.08334 10 7.08334ZM10 11.25C9.75282 11.25 9.51114 11.1767 9.30558 11.0393C9.10002 10.902 8.9398 10.7068 8.84519 10.4784C8.75058 10.25 8.72583 9.99862 8.77406 9.75615C8.82229 9.51367 8.94134 9.29094 9.11616 9.11613C9.29097 8.94131 9.5137 8.82226 9.75618 8.77403C9.99866 8.7258 10.25 8.75055 10.4784 8.84516C10.7068 8.93977 10.902 9.09999 11.0394 9.30555C11.1767 9.51111 11.25 9.75278 11.25 10C11.25 10.3315 11.1183 10.6495 10.8839 10.8839C10.6495 11.1183 10.3316 11.25 10 11.25Z" fill="#4C4C4C"/>
</svg>
